<mxfile host="app.diagrams.net" modified="2020-12-02T15:59:46.514Z" agent="5.0 (Windows)" etag="itEnHo_cza4UJz-D9ZXp" version="13.10.5" type="github">
  <diagram id="C5RBs43oDa-KdzZeNtuy" name="Page-1">
    <mxGraphModel dx="1185" dy="636" grid="1" gridSize="10" guides="1" tooltips="1" connect="1" arrows="1" fold="1" page="1" pageScale="1" pageWidth="827" pageHeight="1169" math="0" shadow="0">
      <root>
        <mxCell id="WIyWlLk6GJQsqaUBKTNV-0" />
        <mxCell id="WIyWlLk6GJQsqaUBKTNV-1" parent="WIyWlLk6GJQsqaUBKTNV-0" />
        <mxCell id="N9ODTXoHgzQmRijLDOzG-2" value="" style="edgeStyle=orthogonalEdgeStyle;rounded=0;orthogonalLoop=1;jettySize=auto;html=1;" edge="1" parent="WIyWlLk6GJQsqaUBKTNV-1" source="N9ODTXoHgzQmRijLDOzG-0" target="N9ODTXoHgzQmRijLDOzG-1">
          <mxGeometry relative="1" as="geometry" />
        </mxCell>
        <mxCell id="N9ODTXoHgzQmRijLDOzG-0" value="Чтение из файловой системы" style="rounded=0;whiteSpace=wrap;html=1;" vertex="1" parent="WIyWlLk6GJQsqaUBKTNV-1">
          <mxGeometry x="27" y="10" width="120" height="60" as="geometry" />
        </mxCell>
        <mxCell id="N9ODTXoHgzQmRijLDOzG-4" value="" style="edgeStyle=orthogonalEdgeStyle;rounded=0;orthogonalLoop=1;jettySize=auto;html=1;" edge="1" parent="WIyWlLk6GJQsqaUBKTNV-1" source="N9ODTXoHgzQmRijLDOzG-1" target="N9ODTXoHgzQmRijLDOzG-3">
          <mxGeometry relative="1" as="geometry" />
        </mxCell>
        <mxCell id="N9ODTXoHgzQmRijLDOzG-1" value="Распознание и трекинг YOLOv4" style="whiteSpace=wrap;html=1;rounded=0;" vertex="1" parent="WIyWlLk6GJQsqaUBKTNV-1">
          <mxGeometry x="27" y="100" width="120" height="60" as="geometry" />
        </mxCell>
        <mxCell id="N9ODTXoHgzQmRijLDOzG-9" value="" style="edgeStyle=orthogonalEdgeStyle;rounded=0;orthogonalLoop=1;jettySize=auto;html=1;" edge="1" parent="WIyWlLk6GJQsqaUBKTNV-1" source="N9ODTXoHgzQmRijLDOzG-3" target="N9ODTXoHgzQmRijLDOzG-8">
          <mxGeometry relative="1" as="geometry" />
        </mxCell>
        <mxCell id="N9ODTXoHgzQmRijLDOzG-3" value="Передача данных в алгоритм анализа потока" style="whiteSpace=wrap;html=1;rounded=0;" vertex="1" parent="WIyWlLk6GJQsqaUBKTNV-1">
          <mxGeometry x="27" y="190" width="120" height="60" as="geometry" />
        </mxCell>
        <mxCell id="N9ODTXoHgzQmRijLDOzG-12" value="" style="edgeStyle=orthogonalEdgeStyle;rounded=0;orthogonalLoop=1;jettySize=auto;html=1;" edge="1" parent="WIyWlLk6GJQsqaUBKTNV-1" source="N9ODTXoHgzQmRijLDOzG-8" target="N9ODTXoHgzQmRijLDOzG-11">
          <mxGeometry relative="1" as="geometry" />
        </mxCell>
        <mxCell id="N9ODTXoHgzQmRijLDOzG-8" value="Для каждой машины в выдаче" style="shape=trapezoid;perimeter=trapezoidPerimeter;whiteSpace=wrap;html=1;fixedSize=1;rounded=0;size=26;" vertex="1" parent="WIyWlLk6GJQsqaUBKTNV-1">
          <mxGeometry y="290" width="174" height="50" as="geometry" />
        </mxCell>
        <mxCell id="N9ODTXoHgzQmRijLDOzG-22" value="" style="edgeStyle=orthogonalEdgeStyle;rounded=0;orthogonalLoop=1;jettySize=auto;html=1;" edge="1" parent="WIyWlLk6GJQsqaUBKTNV-1" source="N9ODTXoHgzQmRijLDOzG-11" target="N9ODTXoHgzQmRijLDOzG-21">
          <mxGeometry relative="1" as="geometry" />
        </mxCell>
        <mxCell id="N9ODTXoHgzQmRijLDOzG-11" value="построить вектор движения от начала к середины и от середины к концу" style="whiteSpace=wrap;html=1;rounded=0;" vertex="1" parent="WIyWlLk6GJQsqaUBKTNV-1">
          <mxGeometry x="233" y="267.5" width="150" height="95" as="geometry" />
        </mxCell>
        <mxCell id="N9ODTXoHgzQmRijLDOzG-20" value="Да" style="edgeStyle=orthogonalEdgeStyle;rounded=0;orthogonalLoop=1;jettySize=auto;html=1;exitX=1;exitY=0.5;exitDx=0;exitDy=0;" edge="1" parent="WIyWlLk6GJQsqaUBKTNV-1" source="N9ODTXoHgzQmRijLDOzG-15" target="N9ODTXoHgzQmRijLDOzG-19">
          <mxGeometry relative="1" as="geometry" />
        </mxCell>
        <mxCell id="N9ODTXoHgzQmRijLDOzG-27" style="edgeStyle=orthogonalEdgeStyle;rounded=0;orthogonalLoop=1;jettySize=auto;html=1;entryX=0.5;entryY=1;entryDx=0;entryDy=0;" edge="1" parent="WIyWlLk6GJQsqaUBKTNV-1" source="N9ODTXoHgzQmRijLDOzG-15" target="N9ODTXoHgzQmRijLDOzG-21">
          <mxGeometry relative="1" as="geometry">
            <Array as="points">
              <mxPoint x="504" y="485" />
              <mxPoint x="308" y="485" />
            </Array>
          </mxGeometry>
        </mxCell>
        <mxCell id="N9ODTXoHgzQmRijLDOzG-28" value="Нет" style="edgeLabel;html=1;align=center;verticalAlign=middle;resizable=0;points=[];" vertex="1" connectable="0" parent="N9ODTXoHgzQmRijLDOzG-27">
          <mxGeometry x="-0.2923" y="1" relative="1" as="geometry">
            <mxPoint x="-18.64" as="offset" />
          </mxGeometry>
        </mxCell>
        <mxCell id="N9ODTXoHgzQmRijLDOzG-15" value="Конец маршрута пересекает заданную область на дороге?" style="rhombus;whiteSpace=wrap;html=1;rounded=0;perimeterSpacing=4;strokeColor=#B3B3B3;" vertex="1" parent="WIyWlLk6GJQsqaUBKTNV-1">
          <mxGeometry x="414" y="375" width="180" height="90" as="geometry" />
        </mxCell>
        <mxCell id="N9ODTXoHgzQmRijLDOzG-26" style="edgeStyle=orthogonalEdgeStyle;rounded=0;orthogonalLoop=1;jettySize=auto;html=1;entryX=0.5;entryY=1;entryDx=0;entryDy=0;" edge="1" parent="WIyWlLk6GJQsqaUBKTNV-1" source="N9ODTXoHgzQmRijLDOzG-19" target="N9ODTXoHgzQmRijLDOzG-8">
          <mxGeometry relative="1" as="geometry" />
        </mxCell>
        <mxCell id="N9ODTXoHgzQmRijLDOzG-19" value="Запись в базу данных" style="whiteSpace=wrap;html=1;rounded=0;" vertex="1" parent="WIyWlLk6GJQsqaUBKTNV-1">
          <mxGeometry x="538" y="520" width="120" height="60" as="geometry" />
        </mxCell>
        <mxCell id="N9ODTXoHgzQmRijLDOzG-25" style="edgeStyle=orthogonalEdgeStyle;rounded=0;orthogonalLoop=1;jettySize=auto;html=1;entryX=0;entryY=0.5;entryDx=0;entryDy=0;" edge="1" parent="WIyWlLk6GJQsqaUBKTNV-1" source="N9ODTXoHgzQmRijLDOzG-21" target="N9ODTXoHgzQmRijLDOzG-15">
          <mxGeometry relative="1" as="geometry" />
        </mxCell>
        <mxCell id="N9ODTXoHgzQmRijLDOzG-21" value="Для каждого области дороги" style="shape=trapezoid;perimeter=trapezoidPerimeter;whiteSpace=wrap;html=1;fixedSize=1;rounded=0;" vertex="1" parent="WIyWlLk6GJQsqaUBKTNV-1">
          <mxGeometry x="248" y="390" width="120" height="60" as="geometry" />
        </mxCell>
      </root>
    </mxGraphModel>
  </diagram>
</mxfile>
